<?xml version="1.0" encoding="UTF-8"?>
<svg width="64px" height="64px" viewBox="0 0 64 64" version="1.1" xmlns="http://www.w3.org/2000/svg" xmlns:xlink="http://www.w3.org/1999/xlink">
    <!-- Generator: Sketch 44.1 (41455) - http://www.bohemiancoding.com/sketch -->
    <title>Group 16@1x</title>
    <desc>Created with Sketch.</desc>
    <defs></defs>
    <g id="Page-1" stroke="none" stroke-width="1" fill="none" fill-rule="evenodd">
        <g id="Artboard" fill="#373C4C">
            <g id="Group-16">
                <path d="M32,64 C14.326888,64 0,49.673112 0,32 C0,14.326888 14.326888,0 32,0 C49.673112,0 64,14.326888 64,32 C64,49.673112 49.673112,64 32,64 Z M33.2805467,37.2637154 C33.2426646,37.5098468 33.413134,37.6802456 33.6404266,37.6802456 L35.87547,37.6802456 C36.0648804,37.6802456 36.2164088,37.52878 36.2353498,37.3773145 L37.0687559,31.5269583 L37.1066379,31.5269583 L40.3076747,37.6613124 C40.3644978,37.7749115 40.5160262,37.8695775 40.6296724,37.8695775 L40.9706113,37.8695775 C41.0653165,37.8695775 41.2357859,37.7749115 41.292609,37.6613124 L44.4747047,31.5269583 L44.5125868,31.5269583 L45.3649339,37.3773145 C45.3838749,37.52878 45.5543443,37.6802456 45.7248137,37.6802456 L47.9598571,37.6802456 C48.1871497,37.6802456 48.3576191,37.5098468 48.319737,37.2637154 L46.1793988,24.5406106 C46.1604578,24.3702119 45.9899884,24.2376795 45.83846,24.2376795 L45.5354033,24.2376795 C45.440698,24.2376795 45.2702286,24.3134123 45.2134055,24.4270114 L40.8190829,32.6061502 L40.7812008,32.6061502 L36.3868782,24.4270114 C36.3300551,24.3134123 36.1595857,24.2376795 36.0648804,24.2376795 L35.7618237,24.2376795 C35.6102953,24.2376795 35.4398259,24.3702119 35.4208849,24.5406106 L33.2805467,37.2637154 Z M32.0899739,20.0273768 L28.346786,41.7968938 C28.2914118,42.1189377 28.5076985,42.4248769 28.829876,42.4802282 C29.1520535,42.5355795 29.4581197,42.3193825 29.513494,41.9973386 L33.2566818,20.2278216 C33.3120561,19.9057777 33.0957693,19.5998384 32.7735918,19.5444871 C32.4514143,19.4891358 32.1453482,19.7053329 32.0899739,20.0273768 Z M13.7911568,31.0725617 C13.7911568,34.8592 16.8027831,37.8695775 20.5909922,37.8695775 C24.3792013,37.8695775 27.4097686,34.8592 27.4097686,31.0725617 C27.4097686,27.2859234 24.3792013,24.2376795 20.5909922,24.2376795 C16.8027831,24.2376795 13.7911568,27.2859234 13.7911568,31.0725617 Z" id="Combined-Shape"></path>
                <path d="M16.7638889,31.19909 C16.7638889,33.2628079 18.468583,34.9667952 20.533157,34.9667952 C22.616672,34.9667952 24.3213661,33.2628079 24.3213661,31.19909 C24.3213661,29.116439 22.616672,27.3935185 20.533157,27.3935185 C18.468583,27.3935185 16.7638889,29.116439 16.7638889,31.19909 Z" id="Path"></path>
            </g>
        </g>
    </g>
</svg>